<?xml version="1.0" standalone="no"?>
<!DOCTYPE svg PUBLIC "-//W3C//DTD SVG 20010904//EN"
 "http://www.w3.org/TR/2001/REC-SVG-20010904/DTD/svg10.dtd">
<svg version="1.0" xmlns="http://www.w3.org/2000/svg"
 width="117.000000pt" height="117.000000pt" viewBox="0 0 117.000000 117.000000"
 preserveAspectRatio="xMidYMid meet">
<metadata>
Created by potrace 1.14, written by Peter Selinger 2001-2017
</metadata>
<g transform="translate(0.000000,117.000000) scale(0.100000,-0.100000)"
fill="#000000" stroke="none">
<path d="M505 1164 c-11 -3 -27 -8 -35 -11 -8 -4 -17 -7 -20 -8 -22 -5 -71
-39 -99 -69 -36 -37 -73 -105 -65 -118 3 -5 1 -8 -4 -8 -5 0 -9 -38 -9 -85 1
-47 4 -85 8 -85 4 0 10 -12 13 -26 12 -47 83 -111 171 -154 46 -22 90 -40 97
-40 7 0 33 -10 58 -22 25 -12 50 -20 56 -20 6 1 19 -7 29 -18 10 -11 22 -20
27 -20 24 0 95 -100 81 -114 -4 -3 -2 -6 3 -6 16 0 8 -84 -11 -120 -39 -76
-124 -123 -225 -124 -67 -1 -150 20 -150 37 0 6 -3 8 -6 4 -7 -6 -9 -5 -74 52
l-45 40 -25 -28 c-54 -59 -53 -56 -21 -87 61 -59 100 -82 181 -110 53 -19 81
-23 155 -20 58 2 100 9 119 19 16 9 33 14 38 11 4 -3 8 -1 8 5 0 5 9 13 20 16
23 7 110 90 110 105 0 5 0 13 -1 16 0 4 4 10 10 14 26 15 38 152 21 218 -17
63 -71 135 -135 180 -30 20 -134 66 -190 83 -56 16 -149 66 -175 94 -24 26
-53 112 -40 120 4 3 6 13 3 23 -6 24 35 81 81 112 42 29 46 30 126 33 64 1
149 -35 195 -83 l28 -30 38 42 c31 35 35 45 26 60 -7 10 -18 18 -25 18 -7 0
-11 4 -8 8 3 4 -11 16 -30 27 -19 10 -34 22 -34 27 0 4 -3 7 -7 6 -5 0 -26 7
-48 17 -40 17 -179 29 -220 19z"/>
</g>
</svg>
