<svg width="40" height="40" viewBox="0 0 40 40" fill="none" xmlns="http://www.w3.org/2000/svg">
<path d="M26.3 36.6666V23.7666H30.6204L31.2666 18.7518H26.3V15.5518C26.3 14.1 26.7037 13.1092 28.7852 13.1092H31.4407V8.62405C30.1552 8.48765 28.8631 8.42151 27.5704 8.42591C23.7426 8.42591 21.1222 10.7629 21.1222 15.0555V18.7518H16.7926V23.7666H21.1222V36.6666H5.18516C4.69402 36.6666 4.223 36.4715 3.87571 36.1243C3.52842 35.777 3.33331 35.3059 3.33331 34.8148V5.18516C3.33331 4.69402 3.52842 4.223 3.87571 3.87571C4.223 3.52842 4.69402 3.33331 5.18516 3.33331H34.8148C35.3059 3.33331 35.777 3.52842 36.1243 3.87571C36.4715 4.223 36.6666 4.69402 36.6666 5.18516V34.8148C36.6666 35.3059 36.4715 35.777 36.1243 36.1243C35.777 36.4715 35.3059 36.6666 34.8148 36.6666H26.3Z" fill="#A1A6B4"/>
</svg>
