<svg width="40" height="40" viewBox="0 0 40 40" fill="none" xmlns="http://www.w3.org/2000/svg">
<rect x="3" y="3" width="33.33" height="33.33" rx="2" fill="#A1A6B4"/>
<path d="M23.9404 14.9923C23.1518 14.2694 21.7687 13.4043 19.7184 13.4043C16.8309 13.4043 14.3802 15.2649 13.4945 17.8364C13.2761 18.5001 13.1427 19.2111 13.1427 19.9459C13.1427 20.6806 13.2761 21.3917 13.5066 22.0553C14.3802 24.6269 16.8309 26.4874 19.7184 26.4874C21.3441 26.4874 22.5816 26.0489 23.5036 25.4208C24.9595 24.4254 25.6147 22.9441 25.7359 21.9605H19.7184V18.0024H29.9701C30.1278 18.666 30.2007 19.3059 30.2007 20.1829C30.2007 23.4299 29.0116 26.1675 26.9492 28.028C25.1414 29.6634 22.6665 30.6115 19.7184 30.6115C15.4478 30.6115 11.7596 28.2176 9.96405 24.7335C9.22401 23.2877 8.79938 21.6642 8.79938 19.9459C8.79938 18.2275 9.22401 16.604 9.96405 15.1582C11.7596 11.6741 15.4478 9.28027 19.7184 9.28027C22.6665 9.28027 25.1294 10.335 27.022 12.0533L23.9404 14.9923Z" fill="#121723"/>
</svg>
