<?xml version="1.0" standalone="no"?>
<!DOCTYPE svg PUBLIC "-//W3C//DTD SVG 20010904//EN"
 "http://www.w3.org/TR/2001/REC-SVG-20010904/DTD/svg10.dtd">
<svg version="1.0" xmlns="http://www.w3.org/2000/svg"
 width="76.000000pt" height="76.000000pt" viewBox="0 0 76.000000 76.000000"
 preserveAspectRatio="xMidYMid meet">
<metadata>
Created by potrace 1.14, written by Peter Selinger 2001-2017
</metadata>
<g transform="translate(0.000000,76.000000) scale(0.100000,-0.100000)"
fill="#000000" stroke="none">
<path d="M358 748 c-9 -7 -19 -24 -21 -38 -4 -21 -4 -20 -6 7 -1 31 -2 32 -33
26 -18 -3 -41 -13 -50 -21 -10 -8 -18 -12 -18 -7 0 4 -6 2 -14 -4 -9 -7 -13
-23 -10 -39 3 -20 2 -23 -5 -12 -5 8 -7 18 -5 22 3 4 -2 8 -11 8 -8 0 -18 -7
-21 -15 -4 -8 -15 -15 -27 -15 -11 0 -17 -3 -14 -7 4 -3 -4 -21 -18 -39 -14
-18 -25 -37 -25 -43 0 -6 -5 -11 -11 -11 -5 0 -7 -4 -4 -10 3 -5 -1 -10 -9
-10 -21 0 -20 -14 2 -36 15 -16 15 -17 1 -12 -12 5 -18 0 -22 -18 -3 -20 -1
-24 12 -20 14 5 13 4 -1 -7 -12 -10 -14 -17 -7 -24 8 -8 4 -15 -11 -26 -13 -9
-17 -17 -11 -22 6 -3 11 -15 11 -26 0 -10 5 -19 10 -19 6 0 10 5 10 11 0 5 5
7 12 3 8 -5 5 -11 -10 -17 -21 -10 -30 -27 -14 -27 4 0 8 -15 7 -32 0 -25 9
-42 35 -67 19 -19 28 -31 20 -26 -8 4 -5 -3 6 -16 12 -13 19 -30 17 -36 -7
-18 7 -16 31 5 16 13 18 13 8 1 -10 -13 -8 -19 8 -34 11 -10 20 -14 20 -9 0 5
5 1 11 -9 6 -9 14 -15 20 -12 5 4 9 -2 9 -13 0 -29 11 -33 30 -10 13 16 19 18
25 8 6 -9 4 -11 -6 -5 -10 6 -11 5 -4 -3 6 -6 31 -12 57 -14 27 -2 48 -7 48
-11 0 -5 6 -5 13 0 6 4 20 6 30 5 10 -2 24 1 30 5 7 5 29 9 49 9 24 -1 38 4
38 12 0 6 6 12 13 12 7 0 23 11 35 25 12 14 31 25 42 25 11 0 21 7 21 15 1 8
2 24 3 34 2 31 33 59 61 53 26 -5 31 3 15 28 -5 8 -5 19 0 25 4 5 9 13 9 18 1
4 1 8 2 10 1 1 2 16 3 32 1 17 5 36 10 44 5 7 5 16 0 20 -9 6 -14 33 -17 96
-2 32 -51 90 -68 80 -5 -4 -7 -11 -3 -16 3 -5 10 -6 16 -3 7 4 8 2 4 -5 -6 -9
-11 -9 -24 1 -13 11 -15 11 -10 -4 7 -17 -14 -20 -29 -3 -4 4 -3 5 3 2 24 -14
39 64 20 98 -15 27 -54 58 -90 71 -17 7 -30 16 -29 22 2 7 -9 9 -27 7 -16 -2
-32 1 -36 6 -3 6 -12 5 -22 -3 -12 -10 -14 -10 -8 0 4 7 2 12 -8 12 -8 0 -17
-10 -19 -22 -4 -20 -4 -19 -6 5 -1 29 -17 35 -43 15z m111 -32 c8 -10 9 -16 1
-21 -6 -4 -9 -1 -8 7 2 7 -3 12 -10 10 -8 -1 -11 2 -7 8 8 13 10 13 24 -4z
m-93 -114 c-13 -13 -17 9 -10 50 l9 43 3 -44 c2 -23 1 -46 -2 -49z m-39 56
c-3 -8 -6 -5 -6 6 -1 11 2 17 5 13 3 -3 4 -12 1 -19z m268 0 c5 4 5 1 1 -6 -6
-10 -11 -10 -22 -1 -8 6 -14 14 -14 16 0 3 6 0 13 -6 8 -6 18 -7 22 -3z m-115
-10 c-1 -19 -37 -64 -45 -56 -4 4 3 20 16 37 28 34 29 35 29 19z m-195 -44 c1
-22 -14 -48 -16 -27 0 4 -2 17 -4 27 -4 22 4 41 13 32 3 -4 6 -18 7 -32z m-35
-46 c0 -16 -17 -7 -46 23 l-29 32 37 -24 c21 -13 38 -27 38 -31z m314 30 c-40
-47 -42 -49 -50 -37 -3 6 6 22 22 35 37 30 53 31 28 2z m-469 -8 c-3 -15 1
-20 13 -18 9 2 22 8 27 13 6 6 9 8 8 6 -2 -2 2 -9 7 -16 7 -8 3 -11 -13 -10
-12 1 -29 -1 -38 -6 -13 -6 -15 -3 -13 19 2 31 3 32 8 32 3 0 3 -9 1 -20z
m369 -21 c47 -23 86 -73 86 -110 0 -14 3 -29 7 -33 14 -13 11 -36 -4 -36 -11
0 -14 -6 -10 -21 4 -15 2 -19 -9 -15 -17 7 -19 -25 -2 -42 7 -7 9 -13 5 -13
-4 -1 -11 -3 -17 -4 -5 -1 -17 -3 -26 -4 -8 0 -12 -5 -9 -11 3 -5 1 -10 -4
-10 -6 0 -10 -6 -8 -12 1 -7 -5 -12 -14 -10 -10 1 -19 -6 -22 -18 -4 -17 -13
-20 -53 -20 -69 0 -130 33 -166 89 -26 41 -29 53 -26 107 9 144 146 226 272
163z m-290 -43 c11 -1 22 -8 24 -14 4 -14 -34 -16 -43 -2 -3 5 -20 14 -38 20
l-32 10 35 -5 c19 -3 44 -7 54 -9z m475 -22 c2 -2 -10 -4 -28 -4 -22 0 -30 -4
-25 -12 5 -8 2 -9 -10 -5 -10 4 -20 7 -22 7 -13 0 -1 19 14 23 18 4 64 -1 71
-9z m51 -41 c0 -5 -12 -14 -28 -20 l-27 -13 24 20 c25 22 31 24 31 13z m-60
-13 c0 -5 -2 -10 -4 -10 -3 0 -8 5 -11 10 -3 6 -1 10 4 10 6 0 11 -4 11 -10z
m-470 -30 c0 -5 -21 -10 -47 -9 -39 1 -43 2 -23 9 36 12 70 12 70 0z m481 -28
c-46 -3 -71 2 -71 16 0 5 26 4 58 -2 l57 -11 -44 -3z m-484 -75 c-12 -5 -35
-15 -52 -24 -36 -17 -24 -4 25 30 23 15 37 20 42 13 4 -6 -2 -15 -15 -19z
m450 -37 c38 -33 30 -41 -10 -10 -14 11 -30 20 -36 20 -6 0 -11 5 -11 10 0 18
22 10 57 -20z m90 4 c-3 -3 -12 -4 -19 -1 -8 3 -5 6 6 6 11 1 17 -2 13 -5z
m-487 -20 c0 -3 -9 -17 -20 -31 -23 -29 -25 -25 -8 12 10 22 28 35 28 19z
m339 -64 c26 -34 19 -33 -31 3 -15 11 -25 24 -22 29 9 14 25 4 53 -32z m-444
0 c10 -11 16 -20 13 -20 -3 0 -13 9 -23 20 -10 11 -16 20 -13 20 3 0 13 -9 23
-20z m161 -24 c-9 -14 -17 -36 -17 -48 -1 -20 -2 -20 -6 -4 -7 28 18 99 30 87
7 -7 4 -19 -7 -35z m185 14 c1 -5 3 -14 4 -20 1 -5 3 -17 4 -25 0 -8 6 -14 12
-12 6 1 13 -6 14 -16 6 -34 -36 4 -50 46 -11 31 -10 37 1 37 8 0 15 -4 15 -10z
m-92 -52 c-1 -45 -2 -49 -9 -23 -11 44 -11 75 0 75 6 0 9 -23 9 -52z m-139
-15 c12 10 12 9 2 -4 -6 -9 -8 -20 -4 -24 4 -5 1 -5 -5 -1 -8 4 -13 2 -13 -6
0 -8 -5 -6 -11 5 -6 10 -15 14 -22 10 -9 -5 -9 -3 0 8 10 12 10 18 0 30 -6 7
0 4 14 -9 20 -18 28 -19 39 -9z m-3 21 c-3 -3 -12 -4 -19 -1 -8 3 -5 6 6 6 11
1 17 -2 13 -5z m223 -41 c0 -5 -5 -15 -10 -23 -7 -12 -9 -10 -7 8 1 19 17 33
17 15z m25 -33 c-3 -5 -12 -10 -18 -10 -7 0 -6 4 3 10 19 12 23 12 15 0z"/>
<path d="M254 485 c-18 -14 -17 -14 16 -10 35 5 35 5 8 -7 -16 -7 -28 -18 -28
-27 0 -8 3 -11 7 -8 3 4 11 3 17 -2 21 -16 56 -19 70 -6 7 8 16 11 20 8 3 -4
6 1 6 10 0 46 -75 73 -116 42z"/>
<path d="M433 485 c-25 -18 -39 -84 -24 -113 14 -27 -9 -36 -38 -16 -18 13
-21 13 -21 1 0 -8 7 -17 15 -21 28 -11 17 -36 -16 -36 -26 0 -29 -2 -20 -14 7
-8 27 -18 44 -22 27 -6 29 -8 12 -14 -17 -6 -16 -7 8 -12 21 -4 27 -2 23 9 -3
8 4 18 19 25 32 14 32 28 0 28 -30 0 -33 20 -5 38 16 10 18 16 10 32 -5 10
-10 28 -10 39 0 17 5 19 35 14 26 -4 35 -2 35 8 0 12 2 12 9 0 7 -10 10 -11
16 -1 5 8 1 18 -10 27 -18 12 -18 13 -1 13 15 0 16 3 6 15 -16 19 -59 19 -87
0z"/>
<path d="M669 608 c-7 -24 -4 -34 12 -35 16 -2 17 2 9 18 -9 17 -18 24 -21 17z"/>
<path d="M676 191 c-10 -11 -13 -21 -7 -25 10 -7 14 -3 24 27 8 22 4 22 -17
-2z"/>
</g>
</svg>
