<?xml version="1.0" standalone="no"?>
<!DOCTYPE svg PUBLIC "-//W3C//DTD SVG 20010904//EN"
 "http://www.w3.org/TR/2001/REC-SVG-20010904/DTD/svg10.dtd">
<svg version="1.0" xmlns="http://www.w3.org/2000/svg"
 width="102.000000pt" height="102.000000pt" viewBox="0 0 102.000000 102.000000"
 preserveAspectRatio="xMidYMid meet">
<metadata>
Created by potrace 1.14, written by Peter Selinger 2001-2017
</metadata>
<g transform="translate(0.000000,102.000000) scale(0.100000,-0.100000)"
fill="#000000" stroke="none">
<path d="M2 597 c3 -235 5 -265 20 -281 10 -10 18 -22 18 -28 0 -14 74 -88 88
-88 6 0 18 -8 28 -17 15 -15 37 -18 136 -18 76 0 121 4 126 11 4 6 18 15 32
19 14 4 33 17 43 29 l17 21 18 -21 c9 -12 28 -25 42 -29 14 -4 28 -13 32 -19
5 -7 50 -11 126 -11 99 0 121 3 136 18 10 9 22 17 28 17 14 0 88 74 88 88 0 6
8 18 18 28 15 16 17 46 20 281 l4 263 -81 0 -81 0 0 -240 c0 -140 -4 -240 -9
-240 -5 0 -12 -12 -15 -28 -9 -38 -52 -55 -127 -50 -66 5 -95 26 -105 78 -4
16 -10 30 -15 30 -5 0 -9 101 -9 225 l0 225 -70 0 -70 0 0 -220 c0 -121 -4
-220 -9 -220 -4 0 -11 -16 -14 -35 -11 -69 -69 -96 -172 -81 -40 6 -48 12 -57
37 -5 16 -14 29 -19 29 -5 0 -9 106 -9 245 l0 245 -81 0 -81 0 4 -263z"/>
</g>
</svg>
