<?xml version="1.0" standalone="no"?>
<!DOCTYPE svg PUBLIC "-//W3C//DTD SVG 20010904//EN"
 "http://www.w3.org/TR/2001/REC-SVG-20010904/DTD/svg10.dtd">
<svg version="1.0" xmlns="http://www.w3.org/2000/svg"
 width="75.000000pt" height="75.000000pt" viewBox="0 0 75.000000 75.000000"
 preserveAspectRatio="xMidYMid meet">
<metadata>
Created by potrace 1.14, written by Peter Selinger 2001-2017
</metadata>
<g transform="translate(0.000000,75.000000) scale(0.100000,-0.100000)"
fill="#000000" stroke="none">
<path d="M360 710 c0 -33 -4 -42 -24 -51 -52 -24 -61 -97 -16 -139 l30 -28
-35 -83 c-20 -46 -40 -89 -46 -95 -5 -6 -25 -10 -44 -8 -19 1 -35 -1 -35 -7 0
-5 16 -9 34 -9 l35 0 -16 -37 c-8 -21 -24 -58 -35 -82 -16 -35 -18 -49 -9 -62
8 -13 7 -29 -4 -60 -29 -81 -8 -48 45 74 30 67 59 132 65 144 12 26 52 31 61
8 8 -20 24 -19 24 1 0 11 8 14 27 12 25 -3 33 -17 90 -143 62 -139 74 -158 52
-84 -9 28 -9 42 -1 51 8 10 2 34 -24 92 -19 44 -34 81 -34 83 0 2 16 3 36 3
20 0 33 4 29 10 -3 5 -19 8 -35 6 -15 -2 -32 0 -37 3 -5 3 -26 46 -48 94 l-39
89 21 16 c58 47 48 136 -17 157 -12 4 -16 16 -15 45 1 33 -2 40 -17 40 -14 0
-18 -8 -18 -40z m36 -76 c50 -13 47 -87 -4 -105 -18 -7 -28 -3 -48 16 -29 29
-30 49 -4 75 22 22 25 22 56 14z m8 -260 c14 -31 24 -60 21 -65 -8 -12 -35 1
-35 17 0 20 -18 17 -24 -4 -5 -16 -36 -28 -36 -14 0 8 43 122 46 122 1 0 14
-25 28 -56z"/>
</g>
</svg>
